<?xml version="1.0" encoding="UTF-8"?>
<svg version="1.1" xmlns="http://www.w3.org/2000/svg" width="1472" height="704">
<path d="M0 0 C485.76 0 971.52 0 1472 0 C1472 232.32 1472 464.64 1472 704 C986.24 704 500.48 704 0 704 C0 471.68 0 239.36 0 0 Z " fill="#FAFBFB" transform="translate(0,0)"/>
<path d="M0 0 C1.29429932 -0.01401855 1.29429932 -0.01401855 2.61474609 -0.02832031 C18.5139879 0.05061425 18.5139879 0.05061425 24.25 5.25 C24.25 5.91 24.25 6.57 24.25 7.25 C24.8275 7.3325 25.405 7.415 26 7.5 C28.92794601 8.475982 30.30244537 9.88511223 32.25 12.25 C32.25 13.24 32.25 14.23 32.25 15.25 C33.24 15.58 34.23 15.91 35.25 16.25 C44.88053624 28.95989266 44.82848669 43.73532033 44.7890625 58.87890625 C44.79898203 60.96208218 44.81092802 63.04524934 44.82479858 65.12840271 C44.85698519 70.5769529 44.86753905 76.02530209 44.87164307 81.47393799 C44.88044252 90.22523243 44.91581749 98.97636366 44.9638176 107.7275219 C44.97641415 110.78045143 44.97564498 113.83317338 44.97354126 116.88612366 C44.98011795 118.74773318 44.98712348 120.60934126 44.99462891 122.47094727 C44.99050491 123.32027832 44.98638092 124.16960937 44.98213196 125.04467773 C45.00923846 128.96102161 45.02795277 130.91692916 47.25 134.25 C50.1036507 134.79747342 50.1036507 134.79747342 53.3125 134.875 C59.16739675 135.16739675 59.16739675 135.16739675 60.25 136.25 C60.25 141.53 60.25 146.81 60.25 152.25 C32.2 152.25 4.15 152.25 -24.75 152.25 C-24.75 146.97 -24.75 141.69 -24.75 136.25 C-19.0617328 134.35391093 -16.43620859 134.05392384 -10.75 134.25 C-10.42 133.26 -10.09 132.27 -9.75 131.25 C-9.09 131.25 -8.43 131.25 -7.75 131.25 C-8.08 100.56 -8.41 69.87 -8.75 38.25 C-9.41 38.25 -10.07 38.25 -10.75 38.25 C-11.141875 37.486875 -11.53375 36.72375 -11.9375 35.9375 C-14.27687266 32.46877502 -16.84249085 31.36585983 -20.75 30.25 C-24.2386153 29.76697183 -27.6690536 29.69500202 -31.1875 29.6875 C-32.09048828 29.65076172 -32.99347656 29.61402344 -33.92382812 29.57617188 C-39.78944661 29.53794554 -43.38705397 30.6598535 -48.07836914 34.17602539 C-52.63135675 39.82486864 -53.19494783 46.27810578 -53.18237305 53.23632812 C-53.1925647 54.09581055 -53.20275635 54.95529297 -53.21325684 55.84082031 C-53.24321791 58.65436464 -53.25262678 61.46756757 -53.26171875 64.28125 C-53.27857797 66.24280921 -53.29672988 68.2043577 -53.31611633 70.16589355 C-53.36348737 75.30815276 -53.39338007 80.45036848 -53.41955566 85.59277344 C-53.44942638 90.84839462 -53.4959343 96.10386617 -53.54101562 101.359375 C-53.62690196 111.65617152 -53.69431237 121.95299895 -53.75 132.25 C-53.16992188 132.44335938 -52.58984375 132.63671875 -51.9921875 132.8359375 C-47.578125 134.30729167 -43.1640625 135.77864583 -38.75 137.25 C-38.75 142.2 -38.75 147.15 -38.75 152.25 C-66.47 152.25 -94.19 152.25 -122.75 152.25 C-122.75 147.3 -122.75 142.35 -122.75 137.25 C-119.4296875 136.56640625 -116.109375 135.8828125 -112.7890625 135.19921875 C-109.47074996 134.51236391 -109.47074996 134.51236391 -107.75 131.25 C-107.45358441 129.30134632 -107.45358441 129.30134632 -107.50276184 127.15100098 C-107.49856735 126.31821121 -107.49437286 125.48542145 -107.49005127 124.62739563 C-107.49567078 123.71717148 -107.50129028 122.80694733 -107.50708008 121.86914062 C-107.50518173 120.90791794 -107.50328339 119.94669525 -107.50132751 118.9563446 C-107.49761704 115.77289727 -107.50832807 112.58967713 -107.51953125 109.40625 C-107.52072303 107.19812039 -107.52117622 104.98999027 -107.5209198 102.78186035 C-107.52248515 98.1515791 -107.53077871 93.5213751 -107.54418945 88.89111328 C-107.56117931 82.94903736 -107.5650038 77.0070464 -107.56424427 71.06494904 C-107.56451591 66.50456935 -107.56999612 61.94420833 -107.57724571 57.38383484 C-107.58043305 55.19252158 -107.58239994 53.0012062 -107.58313942 50.80989075 C-107.58530227 47.75017682 -107.59404544 44.69055383 -107.60473633 41.63085938 C-107.60428314 40.72063522 -107.60382996 39.81041107 -107.60336304 38.87260437 C-107.60762802 38.03981461 -107.61189301 37.20702484 -107.61628723 36.34899902 C-107.61796308 35.62560081 -107.61963892 34.90220261 -107.62136555 34.15688324 C-107.68474287 32.02633877 -107.68474287 32.02633877 -108.75 29.25 C-109.74902344 29.11722656 -110.74804688 28.98445313 -111.77734375 28.84765625 C-113.06769531 28.67105469 -114.35804688 28.49445313 -115.6875 28.3125 C-116.97527344 28.13847656 -118.26304687 27.96445312 -119.58984375 27.78515625 C-122.75 27.25 -122.75 27.25 -123.75 26.25 C-123.82258946 24.06360547 -123.83373783 21.87499611 -123.8125 19.6875 C-123.80347656 18.48996094 -123.79445313 17.29242188 -123.78515625 16.05859375 C-123.77355469 15.13175781 -123.76195312 14.20492188 -123.75 13.25 C-121.81833984 12.94255859 -121.81833984 12.94255859 -119.84765625 12.62890625 C-118.16923637 12.35698348 -116.4908528 12.08483649 -114.8125 11.8125 C-113.96236328 11.67779297 -113.11222656 11.54308594 -112.23632812 11.40429688 C-111.02299805 11.20610352 -111.02299805 11.20610352 -109.78515625 11.00390625 C-108.66185913 10.82323608 -108.66185913 10.82323608 -107.51586914 10.63891602 C-105.7329115 10.41240096 -105.7329115 10.41240096 -104.75 9.25 C-98.97755414 7.53169053 -93.11992076 6.91399732 -87.1328125 6.49609375 C-84.60450204 6.3221086 -84.60450204 6.3221086 -81.75 5.25 C-80.18881572 5.18259135 -78.6249748 5.16485544 -77.0625 5.1875 C-75.85013672 5.20103516 -75.85013672 5.20103516 -74.61328125 5.21484375 C-73.69095703 5.23224609 -73.69095703 5.23224609 -72.75 5.25 C-72.75 4.59 -72.75 3.93 -72.75 3.25 C-70.48122896 3.00124439 -68.20980265 2.77660754 -65.9375 2.5625 C-64.04064453 2.37107422 -64.04064453 2.37107422 -62.10546875 2.17578125 C-58.75 2.25 -58.75 2.25 -56.84375 3.21875 C-55.10231072 6.45285152 -55.17232852 9.84453841 -55.0625 13.4375 C-55.02833984 14.18708984 -54.99417969 14.93667969 -54.95898438 15.70898438 C-54.87665706 17.55546838 -54.81164719 19.40270994 -54.75 21.25 C-50.19012587 19.80479399 -47.49175032 17.40922063 -44.0625 14.125 C-38.95963173 9.25 -38.95963173 9.25 -36.75 9.25 C-36.42 8.26 -36.09 7.27 -35.75 6.25 C-24.96650311 0.36618908 -11.9821499 0.08880365 0 0 Z " fill="#050505" transform="translate(1058.75,275.75)"/>
<path d="M0 0 C1.8574585 0.00132935 1.8574585 0.00132935 3.75244141 0.00268555 C15.18281377 0.15092672 24.04166151 2.12026529 34.25 7.375 C34.25 8.035 34.25 8.695 34.25 9.375 C35.013125 9.49875 35.77625 9.6225 36.5625 9.75 C39.25 10.375 39.25 10.375 42.25 12.375 C43.3828125 14.6875 43.3828125 14.6875 44.375 17.375 C44.87386719 18.7053125 44.87386719 18.7053125 45.3828125 20.0625 C45.66898437 20.825625 45.95515625 21.58875 46.25 22.375 C46.58 23.035 46.91 23.695 47.25 24.375 C47.78789246 30.70558054 47.8099517 35.88674113 44.25 41.375 C43.59 41.375 42.93 41.375 42.25 41.375 C41.17474806 44.02728812 40.15543849 46.65868454 39.25 49.375 C35.785 49.87 35.785 49.87 32.25 50.375 C32.25 51.035 32.25 51.695 32.25 52.375 C24.56282445 54.42491348 17.344289 54.1408945 10.21875 50.578125 C7.41482858 48.86461746 5.37800176 46.86780206 3.25 44.375 C2.1671875 43.199375 2.1671875 43.199375 1.0625 42 C-3.74965561 35.03067119 -2.97100856 27.54003859 -2.75 19.375 C-5.89930893 18.32523036 -8.13814456 18.27368405 -11.4375 18.3125 C-12.43136719 18.32152344 -13.42523438 18.33054688 -14.44921875 18.33984375 C-15.20847656 18.35144531 -15.96773438 18.36304688 -16.75 18.375 C-17.03875 18.973125 -17.3275 19.57125 -17.625 20.1875 C-18.75 22.375 -18.75 22.375 -20.75 25.375 C-22.58678624 35.4773243 -22.48132737 46.19068332 -20.1953125 56.171875 C-19.63721041 58.93301164 -19.60226051 61.56794974 -19.75 64.375 C-19.09 64.375 -18.43 64.375 -17.75 64.375 C-17.40066406 65.08527344 -17.05132812 65.79554688 -16.69140625 66.52734375 C-16.23636719 67.44644531 -15.78132813 68.36554688 -15.3125 69.3125 C-14.86003906 70.22902344 -14.40757812 71.14554687 -13.94140625 72.08984375 C-12.94474606 74.28028904 -12.94474606 74.28028904 -11.75 75.375 C-9.3882379 75.52242016 -7.05183479 75.60984459 -4.6875 75.65625 C-3.98101318 75.67465942 -3.27452637 75.69306885 -2.54663086 75.71203613 C-0.28117416 75.77095552 1.98435859 75.82370427 4.25 75.875 C7.22933407 75.94245424 10.20841563 76.0161219 13.1875 76.09375 C13.8791626 76.10732544 14.5708252 76.12090088 15.28344727 76.1348877 C20.13719819 76.26219819 20.13719819 76.26219819 21.25 77.375 C21.33685603 78.93672745 21.35702219 80.50229344 21.34765625 82.06640625 C21.34515869 82.91662354 21.34266113 83.76684082 21.34008789 84.64282227 C21.33098389 85.73006592 21.32187988 86.81730957 21.3125 87.9375 C21.291875 91.381875 21.27125 94.82625 21.25 98.375 C11.02 98.375 0.79 98.375 -9.75 98.375 C-9.68718535 111.7701376 -9.61186474 125.16504241 -9.51428509 138.55997276 C-9.46948405 144.77922658 -9.43024955 150.99841341 -9.40356445 157.21777344 C-9.37762842 163.21548675 -9.3372954 169.2129436 -9.28681374 175.21049881 C-9.27007916 177.5030868 -9.25860613 179.79571921 -9.25238609 182.08835983 C-9.24281649 185.29013964 -9.21484339 188.49125343 -9.18237305 191.69287109 C-9.18380814 192.64880661 -9.18524323 193.60474213 -9.1867218 194.58964539 C-9.16791458 195.89375618 -9.16791458 195.89375618 -9.14872742 197.22421265 C-9.14411845 197.98192648 -9.13950949 198.73964031 -9.13476086 199.52031517 C-8.89060968 201.78828069 -8.89060968 201.78828069 -5.75 203.375 C-5.75 204.035 -5.75 204.695 -5.75 205.375 C-4.53441406 205.43558594 -3.31882812 205.49617187 -2.06640625 205.55859375 C-0.48175772 205.64298332 1.10287702 205.7276321 2.6875 205.8125 C3.48994141 205.85181641 4.29238281 205.89113281 5.11914062 205.93164062 C11.13671875 206.26171875 11.13671875 206.26171875 12.25 207.375 C12.25 212.325 12.25 217.275 12.25 222.375 C-18.77 222.375 -49.79 222.375 -81.75 222.375 C-81.75 207.375 -81.75 207.375 -80.75 206.375 C-77.78218265 205.91526142 -74.80830846 205.53865659 -71.828125 205.16796875 C-68.01046844 204.18448616 -66.42540557 203.3020553 -63.75 200.375 C-62.98837798 197.08167191 -63.05995524 193.8338547 -63.09057617 190.46582031 C-63.07485062 188.9580175 -63.07485062 188.9580175 -63.05880737 187.41975403 C-63.0300062 184.09723232 -63.03635513 180.77574944 -63.04296875 177.453125 C-63.02985686 175.14954316 -63.01455421 172.84597282 -62.99714661 170.54241943 C-62.95722471 164.47936971 -62.94710147 158.41662025 -62.94311523 152.35345459 C-62.93379743 146.16653289 -62.89639233 139.97978863 -62.86132812 133.79296875 C-62.79667866 121.6536125 -62.7660943 109.51451785 -62.75 97.375 C-69.02 97.375 -75.29 97.375 -81.75 97.375 C-81.75 90.775 -81.75 84.175 -81.75 77.375 C-75.81 77.375 -69.87 77.375 -63.75 77.375 C-63.78480469 75.15523438 -63.81960938 72.93546875 -63.85546875 70.6484375 C-63.87900742 68.44727864 -63.89714191 66.24613494 -63.91479492 64.04492188 C-63.92968431 62.53997299 -63.9500027 61.03506589 -63.97631836 59.53027344 C-64.14441904 49.6551822 -64.10920168 39.80790977 -60.75 30.375 C-59.76 29.715 -58.77 29.055 -57.75 28.375 C-56.73306714 26.71861075 -55.73536418 25.05036122 -54.75 23.375 C-53.31504246 21.58857035 -51.83369683 19.83859103 -50.3125 18.125 C-49.55066406 17.25359375 -48.78882813 16.3821875 -48.00390625 15.484375 C-45.7916016 13.41393391 -44.70381588 12.72488252 -41.75 12.375 C-41.75 11.715 -41.75 11.055 -41.75 10.375 C-35.125 7.375 -35.125 7.375 -31.75 7.375 C-31.75 6.715 -31.75 6.055 -31.75 5.375 C-21.21128065 1.08144767 -11.35734628 -0.01453912 0 0 Z " fill="#060606" transform="translate(399.75,205.625)"/>
<path d="M0 0 C1.99327829 3.02622614 1.70756097 6.12568974 1.67814732 9.63047028 C1.68338301 10.41904246 1.68861871 11.20761464 1.69401306 12.02008295 C1.70801846 14.67108727 1.70066211 17.32160787 1.69351292 19.97263336 C1.69925295 21.86966638 1.70633469 23.76669575 1.7146616 25.66371918 C1.7297964 29.75290562 1.73554712 33.84196132 1.73413372 37.93117523 C1.73210466 44.39286343 1.75163531 50.85437506 1.7743082 57.31601715 C1.81532875 69.86424507 1.83390068 82.41245923 1.85048008 94.96073914 C1.87281971 110.93361275 1.90628809 126.90644587 1.95767921 142.87925291 C1.9776439 149.30699422 1.9871837 155.73464344 1.98863137 162.16241455 C1.99137537 166.15594925 2.00219144 170.14943286 2.01514149 174.14294624 C2.01943306 175.99934988 2.0202732 177.85576508 2.01746655 179.71217155 C2.01408233 182.23998835 2.02281008 184.76748043 2.03459263 187.2952652 C2.03061153 188.03543334 2.02663044 188.77560147 2.02252871 189.53819895 C2.05322678 193.23602198 2.18428772 194.7999821 4.29287815 197.96286774 C4.29287815 198.95286774 4.29287815 199.94286774 4.29287815 200.96286774 C5.29190159 201.09564117 6.29092503 201.22841461 7.3202219 201.36521149 C8.61057346 201.54181305 9.90092503 201.71841461 11.23037815 201.90036774 C12.51815159 202.07439117 13.80592503 202.24841461 15.1327219 202.42771149 C18.29287815 202.96286774 18.29287815 202.96286774 19.29287815 203.96286774 C19.29287815 208.91286774 19.29287815 213.86286774 19.29287815 218.96286774 C-9.41712185 218.96286774 -38.12712185 218.96286774 -67.70712185 218.96286774 C-67.70712185 213.68286774 -67.70712185 208.40286774 -67.70712185 202.96286774 C-60.28212185 201.97286774 -60.28212185 201.97286774 -52.70712185 200.96286774 C-51.73927112 197.09146484 -51.5813515 194.08143344 -51.58013821 190.11064911 C-51.57779822 189.07752571 -51.57779822 189.07752571 -51.57541096 188.02353114 C-51.57142353 185.71658574 -51.57458183 183.4097062 -51.57772732 181.10276031 C-51.57637232 179.44864107 -51.57459182 177.79452212 -51.57241726 176.14040375 C-51.56785579 171.64897366 -51.56962694 167.15756652 -51.57279634 162.66613603 C-51.57532529 157.97140074 -51.57298103 153.27666743 -51.57141018 148.58193207 C-51.56959059 140.70085039 -51.57198984 132.81977807 -51.57675076 124.93869781 C-51.58219863 115.81481261 -51.58042606 106.69094973 -51.57492435 97.56706506 C-51.57039397 89.74197854 -51.56974213 81.91689876 -51.57236302 74.09181136 C-51.57392548 69.41428777 -51.57412028 64.7367747 -51.57082653 60.05925179 C-51.56794872 55.66557196 -51.56992183 51.27192108 -51.57572079 46.8782444 C-51.57704863 45.26126656 -51.57665387 43.64428631 -51.57445812 42.02730942 C-51.57174769 39.82955129 -51.57512632 37.63188746 -51.58013821 35.43413544 C-51.58051523 34.20136273 -51.58089226 32.96859003 -51.58128071 31.69846058 C-51.39521939 29.05014811 -51.39521939 29.05014811 -52.70712185 27.96286774 C-55.96555714 27.42206746 -59.23395067 26.99680656 -62.5079031 26.56052399 C-65.70712185 25.96286774 -65.70712185 25.96286774 -69.70712185 23.96286774 C-69.70712185 19.67286774 -69.70712185 15.38286774 -69.70712185 10.96286774 C-64.25759301 8.76393505 -59.71424697 7.79817124 -53.83212185 7.58786774 C-46.8459902 7.25253342 -40.63765132 5.79516 -33.92123318 3.91184235 C-28.48718989 2.39954563 -23.0737471 1.13763049 -17.51962185 0.15036774 C-16.5143948 -0.03501556 -16.5143948 -0.03501556 -15.48886013 -0.22414398 C-3.68309316 -2.23759935 -3.68309316 -2.23759935 0 0 Z " fill="#010101" transform="translate(708.7071218490601,209.0371322631836)"/>
<path d="M0 0 C2.63115269 2.42590722 2.991875 3.92364534 3.37358761 7.51078796 C3.38832092 8.94681379 3.38650361 10.38306556 3.37181091 11.8190918 C3.37754776 13.00829869 3.37754776 13.00829869 3.3834005 14.22152996 C3.39269428 16.88093807 3.38068877 19.53982677 3.36889648 22.19921875 C3.37136405 24.10462663 3.37520202 26.01003316 3.38031006 27.91543579 C3.38865335 32.01989254 3.38783604 36.12421058 3.38012505 40.22866821 C3.36855796 46.71590618 3.38069091 53.20296506 3.39674377 59.69018555 C3.43296345 75.80260132 3.43916545 91.91501306 3.43664551 108.02746582 C3.43493601 120.54968415 3.44200435 133.07175666 3.47662407 145.59393406 C3.49345246 152.04574828 3.49159398 158.4972074 3.47580135 164.94902039 C3.4700174 168.95903449 3.48072097 172.96887904 3.49604797 176.97886276 C3.49978419 178.84130139 3.49663747 180.70376818 3.48617744 182.56618118 C3.47286695 185.10485476 3.48396368 187.64228543 3.50120544 190.1809082 C3.49139867 190.92137233 3.48159189 191.66183645 3.47148794 192.42473888 C3.51970988 195.84776364 3.75701769 197.68111668 5.85856724 200.43913269 C8.48907287 202.35647996 10.47593839 202.75443228 13.6875 203.1875 C18.93055556 203.93055556 18.93055556 203.93055556 20 205 C20.07319621 207.69654854 20.09242537 210.36691458 20.0625 213.0625 C20.05798828 213.82111328 20.05347656 214.57972656 20.04882812 215.36132812 C20.0370068 217.24091871 20.01907078 219.12046899 20 221 C8.80426756 221.02312269 -2.39145924 221.04091471 -13.58721066 221.05181217 C-18.78528115 221.05704116 -23.98333536 221.0641391 -29.18139648 221.07543945 C-34.19342268 221.08626776 -39.20543318 221.09227671 -44.21747017 221.09487724 C-46.13412282 221.09673159 -48.05077457 221.1003524 -49.96742058 221.10573006 C-52.64228072 221.11293975 -55.31707514 221.11399097 -57.99194336 221.11352539 C-58.7925116 221.11712067 -59.59307983 221.12071594 -60.41790771 221.12442017 C-65.88594784 221.11405216 -65.88594784 221.11405216 -67 220 C-67.07313567 217.46950598 -67.09247527 214.96695163 -67.0625 212.4375 C-67.05798828 211.72658203 -67.05347656 211.01566406 -67.04882812 210.28320312 C-67.03700864 208.52209987 -67.01907263 206.76103964 -67 205 C-65.39318359 204.70996094 -65.39318359 204.70996094 -63.75390625 204.4140625 C-62.35668511 204.15149745 -60.95955422 203.88845175 -59.5625 203.625 C-58.85544922 203.49867188 -58.14839844 203.37234375 -57.41992188 203.2421875 C-55.59948 202.89377757 -53.79728352 202.452957 -52 202 C-51.505 201.01 -51.505 201.01 -51 200 C-50.01 200 -49.02 200 -48 200 C-48.06045622 177.99959374 -48.1379003 155.99930615 -48.23571491 133.99903297 C-48.28073073 123.78452204 -48.32013192 113.57004642 -48.34643555 103.35546875 C-48.3693689 94.45516151 -48.40271432 85.55496551 -48.44870156 76.65474641 C-48.47269695 71.93967101 -48.4913842 67.2247062 -48.49761391 62.50957108 C-48.50363636 58.07560456 -48.5235323 53.64192124 -48.55427551 49.20805931 C-48.56310156 47.57701136 -48.56676895 45.94592646 -48.56500816 44.31485558 C-48.56336779 42.0950393 -48.5799466 39.87609919 -48.60127258 37.65640259 C-48.60588155 36.41198206 -48.61049051 35.16756153 -48.61523914 33.88543129 C-48.74221023 32.93323896 -48.86918131 31.98104664 -49 31 C-54.49714648 27.33523568 -60.56779981 26.6770737 -67 26 C-67.02686553 24.02090602 -67.04633375 22.04171029 -67.0625 20.0625 C-67.07410156 18.96035156 -67.08570313 17.85820312 -67.09765625 16.72265625 C-67 14 -67 14 -66 13 C-64.27806846 12.66827939 -62.5465399 12.38613679 -60.8125 12.125 C-54.82579387 11.17859855 -48.94019528 9.93008947 -43.03125 8.5859375 C-40 8 -40 8 -36 8 C-36 7.34 -36 6.68 -36 6 C-35.23333008 5.85377197 -34.46666016 5.70754395 -33.67675781 5.55688477 C-30.20094751 4.89325876 -26.72547134 4.22789879 -23.25 3.5625 C-22.0434375 3.33240234 -20.836875 3.10230469 -19.59375 2.86523438 C-17.85351562 2.53168945 -17.85351562 2.53168945 -16.078125 2.19140625 C-15.00981445 1.98717041 -13.94150391 1.78293457 -12.84082031 1.57250977 C-11.15664082 1.23309752 -9.47685879 0.86734717 -7.81152344 0.44506836 C-5.07973216 -0.22609815 -2.79678129 -0.29752992 0 0 Z " fill="#030303" transform="translate(605,207)"/>
<path d="M0 0 C2.21909158 3.32863737 2.24810087 4.34450796 2.24050903 8.22013855 C2.24325836 9.30127426 2.24600769 10.38240997 2.24884033 11.49630737 C2.2380545 13.27547043 2.2380545 13.27547043 2.22705078 15.09057617 C2.22734283 16.33947128 2.22763489 17.58836639 2.22793579 18.87510681 C2.22678024 22.30053405 2.21674185 25.72572095 2.20278788 29.15110564 C2.19029513 32.73055677 2.18911117 36.31001102 2.18673706 39.88948059 C2.180518 46.66802776 2.16410144 53.4465105 2.14403808 60.22502929 C2.12169231 67.94199254 2.11068898 75.65895886 2.10064721 83.3759464 C2.07973557 99.25066826 2.04455134 115.12532583 2 131 C5.52635768 132.85703627 8.84810266 133.76658258 12.75 134.625 C14.8125 135.07875 16.875 135.5325 19 136 C19 141.28 19 146.56 19 152 C-9.38 152 -37.76 152 -67 152 C-67 146.39 -67 140.78 -67 135 C-63.71223958 134.57682292 -60.42447917 134.15364583 -57.13671875 133.73046875 C-53.85152812 132.96542436 -53.00710964 132.57595612 -51 130 C-50.71388687 126.90261514 -50.61114227 124.00785865 -50.64355469 120.91040039 C-50.64151031 119.98004471 -50.63946594 119.04968903 -50.63735962 118.09114075 C-50.63434682 115.00978057 -50.65284553 111.92895301 -50.671875 108.84765625 C-50.67493218 106.70918409 -50.67680861 104.57070994 -50.67755127 102.43223572 C-50.68215767 97.94734086 -50.69659539 93.46262521 -50.71875 88.9777832 C-50.74701546 83.22637135 -50.75795956 77.47510085 -50.7624321 71.72362614 C-50.7665881 67.30645836 -50.77640739 62.88931922 -50.78830719 58.47216606 C-50.79400841 56.35145738 -50.7987676 54.23074596 -50.80257416 52.11003304 C-50.8094443 49.14630423 -50.82308098 46.1826872 -50.83886719 43.21899414 C-50.83998505 42.34041748 -50.84110291 41.46184082 -50.84225464 40.55664062 C-50.85081985 39.34325768 -50.85081985 39.34325768 -50.85955811 38.10536194 C-50.86253277 37.40500855 -50.86550743 36.70465517 -50.86857224 35.98307896 C-51.00738443 33.88857825 -51.43169982 32.01697445 -52 30 C-52.83144531 29.87882812 -53.66289063 29.75765625 -54.51953125 29.6328125 C-55.60621094 29.46523438 -56.69289063 29.29765625 -57.8125 29.125 C-58.89144531 28.96257812 -59.97039063 28.80015625 -61.08203125 28.6328125 C-64 28 -64 28 -67 26 C-67.29296875 22.9609375 -67.29296875 22.9609375 -67.1875 19.375 C-67.16042969 18.18648438 -67.13335938 16.99796875 -67.10546875 15.7734375 C-67.07066406 14.85820312 -67.03585937 13.94296875 -67 13 C-65.35 13 -63.7 13 -62 13 C-62 12.34 -62 11.68 -62 11 C-53.34292105 8.86306318 -44.89981736 6.79462655 -36 6 C-35.67 5.67 -35.34 5.34 -35 5 C-32.39758915 4.47592417 -29.80447101 4.00168654 -27.1875 3.5625 C-26.03640747 3.36563599 -26.03640747 3.36563599 -24.86206055 3.16479492 C-23.30642609 2.89927009 -21.75051743 2.63534665 -20.19433594 2.37304688 C-18.26584463 2.04519477 -16.33973537 1.70339499 -14.4140625 1.359375 C-13.39054688 1.17890625 -12.36703125 0.9984375 -11.3125 0.8125 C-9.97638672 0.57466797 -9.97638672 0.57466797 -8.61328125 0.33203125 C-5.66440621 -0.04263897 -2.96710626 -0.25313774 0 0 Z " fill="#050505" transform="translate(900,276)"/>
<path d="M0 0 C2 2 2 2 2.24774647 4.21553516 C2.24678313 5.14373916 2.2458198 6.07194315 2.24482727 7.02827454 C2.24876495 8.09239563 2.25270264 9.15651672 2.25675964 10.25288391 C2.25106461 11.42538193 2.24536957 12.59787994 2.23950195 13.8059082 C2.24151611 15.03687225 2.24353027 16.2678363 2.24560547 17.53610229 C2.24915908 20.21699755 2.24920096 22.89764743 2.24382973 25.57851601 C2.23623336 29.818537 2.24686075 34.05838859 2.2610321 38.29838562 C2.29880863 50.35640083 2.31696561 62.41434041 2.30541992 74.47241211 C2.29920255 81.12962553 2.31079051 87.78656648 2.34186524 94.44371289 C2.3605241 98.65748127 2.35719718 102.87047824 2.33769763 107.08423388 C2.32919457 110.32488394 2.35325419 113.56532083 2.37231445 116.8059082 C2.36054672 117.97233353 2.34877899 119.13875885 2.33665466 120.3405304 C2.35868548 126.72076931 2.35868548 126.72076931 5.35832214 132.20426941 C9.73586985 135.17999043 13.79789807 135.31056481 19 136 C19 141.28 19 146.56 19 152 C-9.05 152 -37.1 152 -66 152 C-66 146.72 -66 141.44 -66 136 C-63.23307292 135.51171875 -60.46614583 135.0234375 -57.69921875 134.53515625 C-54.91810787 134.04253153 -54.91810787 134.04253153 -52 133 C-50.86211266 130.72422532 -50.87657937 129.48966576 -50.87974548 126.96310425 C-50.87837082 126.11893951 -50.87699615 125.27477478 -50.87557983 124.4050293 C-50.87917511 123.477146 -50.88277039 122.5492627 -50.88647461 121.59326172 C-50.88632858 120.61761261 -50.88618256 119.6419635 -50.8860321 118.63674927 C-50.88673065 115.40103966 -50.89452034 112.1653871 -50.90234375 108.9296875 C-50.90420814 106.69052156 -50.90563194 104.45135521 -50.90663147 102.21218872 C-50.91045502 96.31027099 -50.92028393 90.40837776 -50.93133545 84.50646973 C-50.94155306 78.48738944 -50.94612984 72.4683052 -50.95117188 66.44921875 C-50.96190633 54.63280172 -50.97898082 42.81640289 -51 31 C-54.42690677 29.18309282 -57.40133972 28.46066569 -61.25 27.875 C-62.32765625 27.70742188 -63.4053125 27.53984375 -64.515625 27.3671875 C-65.33546875 27.24601562 -66.1553125 27.12484375 -67 27 C-67.02685412 24.68756208 -67.04632841 22.3750373 -67.0625 20.0625 C-67.07410156 18.77472656 -67.08570313 17.48695313 -67.09765625 16.16015625 C-67 13 -67 13 -66 12 C-64.00041636 11.95919217 -61.99954746 11.95745644 -60 12 C-60 11.34 -60 10.68 -60 10 C-59.44650879 9.92483154 -58.89301758 9.84966309 -58.32275391 9.7722168 C-46.40460004 8.35683551 -46.40460004 8.35683551 -34.8125 5.4375 C-29.70592527 3.68667438 -24.49795381 3.23702399 -19.1496582 2.73413086 C-12.6422352 2.09300171 -6.54307578 -0.60865821 0 0 Z " fill="#050505" transform="translate(504,276)"/>
<path d="M0 0 C3.46248052 2.55100892 5.9350122 5.42383011 8.5625 8.8125 C9.119375 9.26625 9.67625 9.72 10.25 10.1875 C12.33490235 12.76880767 12.25864499 15.59163685 12.5625 18.8125 C13.2225 18.8125 13.8825 18.8125 14.5625 18.8125 C15.22372192 28.61327824 14.77846644 37.2498083 9.5625 45.8125 C3.83969271 51.83971193 -2.9476819 57.32003971 -11.390625 58.24609375 C-12.82271883 58.26993439 -14.2553542 58.27048209 -15.6875 58.25 C-16.43821777 58.24097656 -17.18893555 58.23195313 -17.96240234 58.22265625 C-25.16278634 57.99905149 -31.10258001 56.86490374 -36.55859375 51.87109375 C-39.25372975 48.92650855 -41.16708504 46.62374488 -42.4375 42.8125 C-43.4275 42.4825 -44.4175 42.1525 -45.4375 41.8125 C-49.58274312 34.78435118 -49.4342646 25.285476 -48.015625 17.49609375 C-47.3686152 15.14823243 -46.52629313 12.99008626 -45.4375 10.8125 C-44.7775 10.8125 -44.1175 10.8125 -43.4375 10.8125 C-42.7775 8.8325 -42.1175 6.8525 -41.4375 4.8125 C-40.7775 4.8125 -40.1175 4.8125 -39.4375 4.8125 C-39.4375 4.1525 -39.4375 3.4925 -39.4375 2.8125 C-38.7775 2.8125 -38.1175 2.8125 -37.4375 2.8125 C-37.4375 2.1525 -37.4375 1.4925 -37.4375 0.8125 C-36.18858386 0.33051537 -34.93831192 -0.14795677 -33.6875 -0.625 C-32.64335938 -1.02525391 -32.64335938 -1.02525391 -31.578125 -1.43359375 C-21.91403935 -4.83718596 -8.83852909 -5.5210866 0 0 Z " fill="#0A8CDD" transform="translate(797.4375,372.1875)"/>
<path d="M0 0 C2.75 2.3125 2.75 2.3125 5 5 C5.45375 5.48855469 5.9075 5.97710937 6.375 6.48046875 C9.14585755 9.54258121 10.6345643 11.85839542 11 16 C11.66 16 12.32 16 13 16 C15.20701295 22.62103885 15.13011103 30.70351696 12.87109375 37.29296875 C10.11329109 42.62856084 7.46663712 46.39092319 2 49 C1.34 49 0.68 49 0 49 C0 49.66 0 50.32 0 51 C-8.69616367 54.59841255 -18.44756773 55.83354763 -27.5625 52.8125 C-31.2065031 50.89111655 -33.31584174 49.10797272 -36 46 C-36.51691406 45.43796875 -37.03382813 44.8759375 -37.56640625 44.296875 C-43.28664953 37.95636438 -44.36204159 32.9789879 -44.375 24.5625 C-44.39949219 23.72912109 -44.42398437 22.89574219 -44.44921875 22.03710938 C-44.48244005 15.03295225 -42.34922342 11.46668459 -37.5 6.375 C-36.675 5.59125 -35.85 4.8075 -35 4 C-34.443125 3.29875 -33.88625 2.5975 -33.3125 1.875 C-24.58572262 -5.20076544 -9.68254965 -4.99100497 0 0 Z " fill="#050505" transform="translate(496,203)"/>
<path d="M0 0 C1.01513672 -0.00708984 2.03027344 -0.01417969 3.07617188 -0.02148438 C8.56953405 0.02516076 12.74273076 0.26139996 17.4375 3.4375 C18.9375 5.625 18.9375 5.625 20.4375 8.4375 C21.96772835 10.54257604 23.54686733 12.60466198 25.1328125 14.66796875 C27.94675246 18.48448013 27.55126439 21.99602612 27.5 26.5625 C27.49548828 27.31660156 27.49097656 28.07070312 27.48632812 28.84765625 C27.47453499 30.71097127 27.45659942 32.57424555 27.4375 34.4375 C26.7775 34.4375 26.1175 34.4375 25.4375 34.4375 C25.38142578 35.46810547 25.38142578 35.46810547 25.32421875 36.51953125 C25.25847656 37.42058594 25.19273437 38.32164062 25.125 39.25 C25.03798828 40.58998047 25.03798828 40.58998047 24.94921875 41.95703125 C24.37009808 44.76421925 23.7154858 45.74447846 21.4375 47.4375 C20.7775 47.4375 20.1175 47.4375 19.4375 47.4375 C19.4375 48.0975 19.4375 48.7575 19.4375 49.4375 C17.7875 50.0975 16.1375 50.7575 14.4375 51.4375 C14.4375 52.0975 14.4375 52.7575 14.4375 53.4375 C13.798125 53.56125 13.15875 53.685 12.5 53.8125 C11.819375 54.01875 11.13875 54.225 10.4375 54.4375 C9.9425 55.4275 9.9425 55.4275 9.4375 56.4375 C1.16342563 58.19794136 -7.04475829 58.64743536 -14.5625 54.4375 C-15.93445574 53.14394173 -17.27432656 51.81451298 -18.5625 50.4375 C-19.6453125 49.9115625 -19.6453125 49.9115625 -20.75 49.375 C-22.5625 48.4375 -22.5625 48.4375 -23.5625 45.4375 C-24.5215625 44.81875 -24.5215625 44.81875 -25.5 44.1875 C-28.44837932 41.68584482 -29.05014571 39.13151121 -29.5625 35.4375 C-30.33435961 24.92937621 -29.70919846 16.84490224 -22.8125 8.625 C-15.91527803 0.92870963 -9.93676578 -0.19632871 0 0 Z " fill="#050505" transform="translate(876.5625,200.5625)"/>
<path d="M0 0 C0.66 0 1.32 0 2 0 C2.07003862 21.83537342 2.12296292 43.67072835 2.15543652 65.50619125 C2.17091442 75.64446515 2.19202156 85.7826693 2.22631836 95.92089844 C2.25619247 104.75596927 2.27556829 113.59098961 2.28226548 122.42610955 C2.28618112 127.10552486 2.29540254 131.78479568 2.31719017 136.46416473 C2.33752392 140.86687267 2.34384012 145.26937634 2.33932304 149.67212677 C2.34014964 151.28946543 2.34613385 152.90681078 2.35761642 154.52410889 C2.37251222 156.73000895 2.36896478 158.93513478 2.36076355 161.14105225 C2.36352893 162.37625484 2.36629431 163.61145744 2.36914349 164.88409042 C1.97031896 168.25053518 1.37272506 169.62496538 -1 172 C-3.3046875 172.828125 -3.3046875 172.828125 -5.875 173.25 C-6.71804688 173.39953125 -7.56109375 173.5490625 -8.4296875 173.703125 C-11 174 -11 174 -16 174 C-16 178.62 -16 183.24 -16 188 C12.05 188 40.1 188 69 188 C69 183.38 69 178.76 69 174 C69.33 174 69.66 174 70 174 C70 178.95 70 183.9 70 189 C41.29 189 12.58 189 -17 189 C-17 183.72 -17 178.44 -17 173 C-9.575 172.01 -9.575 172.01 -2 171 C-1.03716778 167.14867111 -0.86254071 164.12917532 -0.84178162 160.17901611 C-0.83684364 159.49364517 -0.83190566 158.80827423 -0.82681805 158.10213447 C-0.81146588 155.80669882 -0.80308863 153.5112911 -0.79467773 151.21582031 C-0.78509742 149.56992854 -0.77508724 147.92403921 -0.76467896 146.27815247 C-0.7376405 141.80953927 -0.71662518 137.34091553 -0.69667697 132.87226582 C-0.67481091 128.20240163 -0.64742524 123.53256992 -0.62062073 118.86273193 C-0.57070225 110.01951588 -0.52576027 101.17628179 -0.48259836 92.33303046 C-0.43321878 82.26539318 -0.37830332 72.1977885 -0.32291877 62.13018274 C-0.20911169 41.42015219 -0.10226985 20.71009053 0 0 Z " fill="#5B5B5B" transform="translate(658,239)"/>
<path d="M0 0 C-8.63250994 4.90868212 -20.32758585 5.46656849 -30 7 C-30.33 10.96 -30.66 14.92 -31 19 C-29.865625 18.938125 -28.73125 18.87625 -27.5625 18.8125 C-22.71742266 18.8038635 -18.40424373 20.00803914 -14 22 C-12 24 -12 24 -11.75390434 26.88543129 C-11.75666972 28.75206208 -11.75666972 28.75206208 -11.75949097 30.65640259 C-11.75778212 31.34823179 -11.75607327 32.04006099 -11.75431263 32.7528547 C-11.75100571 35.0822478 -11.76204095 37.41135589 -11.77294922 39.74072266 C-11.77351307 41.40602105 -11.77319728 43.07131994 -11.77206421 44.73661804 C-11.77148869 49.26739009 -11.7832751 53.79805696 -11.79721212 58.32880449 C-11.80968641 63.06004845 -11.81088737 67.79129463 -11.81326294 72.52255249 C-11.81948744 81.48629055 -11.83591135 90.44998002 -11.85596192 99.41369665 C-11.87829078 109.61668599 -11.88930676 119.81967761 -11.89935279 130.02268529 C-11.92027676 151.01515068 -11.95547153 172.00757228 -12 193 C-12.33 193 -12.66 193 -13 193 C-13.33 137.56 -13.66 82.12 -14 25 C-18.627898 23.67774343 -22.75011875 22.61234087 -27.4375 21.875 C-29.273125 21.58625 -31.10875 21.2975 -33 21 C-33 15.72 -33 10.44 -33 5 C-26.88574345 2.40800971 -21.41022453 1.34878037 -14.8125 0.8125 C-13.93658203 0.73064453 -13.06066406 0.64878906 -12.15820312 0.56445312 C-8.09622528 0.19798204 -4.08265997 -0.10988526 0 0 Z " fill="#737272" transform="translate(569,214)"/>
<path d="M0 0 C0 3.35936298 -0.41788651 3.83869388 -2.3125 6.4375 C-8.89328243 16.72520188 -8.51507303 28.97038509 -8.6875 40.75 C-8.72075705 42.33336004 -8.75525408 43.91669454 -8.79101562 45.5 C-8.87722582 49.33334653 -8.9380905 53.1658808 -9 57 C-14.94 57 -20.88 57 -27 57 C-27 62.61 -27 68.22 -27 74 C-20.73 74 -14.46 74 -8 74 C-8 109.31 -8 144.62 -8 181 C-9.65 181.33 -11.3 181.66 -13 182 C-12.51391769 181.54437683 -12.02783539 181.08875366 -11.52702332 180.61932373 C-9.17552836 176.58577265 -9.56068314 172.68141015 -9.56762695 168.09082031 C-9.5574353 167.08561844 -9.54724365 166.08041656 -9.53674316 165.04475403 C-9.50655097 161.72248811 -9.49733754 158.40051023 -9.48828125 155.078125 C-9.47143922 152.77454668 -9.45328963 150.47097758 -9.43388367 148.16741943 C-9.38632611 142.10446045 -9.35655384 136.04153882 -9.33044434 129.97845459 C-9.30066796 123.7915509 -9.25412758 117.60477603 -9.20898438 111.41796875 C-9.12288557 99.27869829 -9.05711862 87.13944145 -9 75 C-15.27 75 -21.54 75 -28 75 C-28 68.4 -28 61.8 -28 55 C-22.06 55 -16.12 55 -10 55 C-10.03480469 52.78023438 -10.06960938 50.56046875 -10.10546875 48.2734375 C-10.12900742 46.07227864 -10.14714191 43.87113494 -10.16479492 41.66992188 C-10.17968431 40.16497299 -10.2000027 38.66006589 -10.22631836 37.15527344 C-10.39441904 27.2801822 -10.35920168 17.43290977 -7 8 C-6.01 7.34 -5.02 6.68 -4 6 C-2.9590934 4.35857037 -1.95495674 2.69287785 -1 1 C-0.67 0.67 -0.34 0.34 0 0 Z " fill="#474747" transform="translate(346,228)"/>
<path d="M0 0 C1.60379341 -0.05416188 3.20811406 -0.09286638 4.8125 -0.125 C5.70582031 -0.14820313 6.59914063 -0.17140625 7.51953125 -0.1953125 C10 0 10 0 13 2 C13.24817926 4.93383336 13.32643881 7.63632685 13.25 10.5625 C13.24484375 11.35591797 13.2396875 12.14933594 13.234375 12.96679688 C13.15404491 18.84595509 13.15404491 18.84595509 12 20 C9.07412017 20.10228325 6.1724619 20.13945395 3.24609375 20.1328125 C2.33377487 20.13413177 1.42145599 20.13545105 0.48149109 20.1368103 C-2.53320584 20.13874488 -5.54781231 20.13234524 -8.5625 20.125 C-9.58466614 20.12411377 -10.60683228 20.12322754 -11.65997314 20.12231445 C-32.44987755 20.10119104 -53.22115751 19.64836886 -74 19 C-74 18.67 -74 18.34 -74 18 C-45.95 18 -17.9 18 11 18 C11 12.72 11 7.44 11 2 C7.37 1.67 3.74 1.34 0 1 C0 0.67 0 0.34 0 0 Z " fill="#BCBCBC" transform="translate(512,410)"/>
<path d="M0 0 C-2.62451617 2.62451617 -4.4877828 2.5832868 -8.125 3.125 C-10.06375 3.41375 -12.0025 3.7025 -14 4 C-14.33 8.95 -14.66 13.9 -15 19 C16.02 19 47.04 19 79 19 C79 19.33 79 19.66 79 20 C66.63081285 20.02312154 54.26163081 20.04091412 41.89242649 20.05181217 C36.14954938 20.05704141 30.40668699 20.0641398 24.66381836 20.07543945 C19.12660005 20.08626687 13.58939596 20.09227652 8.05216789 20.09487724 C5.93455723 20.09673176 3.81694738 20.10035286 1.69934273 20.10573006 C-1.25571274 20.11293856 -4.21070871 20.11399102 -7.16577148 20.11352539 C-8.49285881 20.1189183 -8.49285881 20.1189183 -9.84675598 20.12442017 C-15.88594784 20.11405216 -15.88594784 20.11405216 -17 19 C-17.07325168 16.13732433 -17.09238205 13.299281 -17.0625 10.4375 C-17.05798828 9.63119141 -17.05347656 8.82488281 -17.04882812 7.99414062 C-17.03700518 5.99606244 -17.01906914 3.99802217 -17 2 C-15.10507994 1.66151348 -13.20901534 1.32943089 -11.3125 1 C-9.72888672 0.7215625 -9.72888672 0.7215625 -8.11328125 0.4375 C-5.35095938 0.04931926 -2.78257957 -0.08259976 0 0 Z " fill="#ADADAE" transform="translate(333,409)"/>
<path d="M0 0 C0.33 0.66 0.66 1.32 1 2 C0.67 2.66 0.34 3.32 0 4 C-5.14613867 5.57000841 -8.46883935 6 -14 6 C-14 10.62 -14 15.24 -14 20 C13.39 20 40.78 20 69 20 C68.67 15.71 68.34 11.42 68 7 C65.69 6.34 63.38 5.68 61 5 C61 4.67 61 4.34 61 4 C67.15234375 3.90234375 67.15234375 3.90234375 69 4 C73.01386486 8.01386486 70 15.32353788 70 21 C41.95 21 13.9 21 -15 21 C-15 15.72 -15 10.44 -15 5 C-9.3117328 3.10391093 -6.68620859 2.80392384 -1 3 C-0.67 2.01 -0.34 1.02 0 0 Z " fill="#3F3F40" transform="translate(1049,407)"/>
<path d="M0 0 C1.32451172 0.02707031 1.32451172 0.02707031 2.67578125 0.0546875 C3.67158203 0.08949219 3.67158203 0.08949219 4.6875 0.125 C5.6775 2.105 5.6775 2.105 6.6875 4.125 C5.6975 3.63 5.6975 3.63 4.6875 3.125 C2.31347499 3.05383618 -0.06250677 3.04090915 -2.4375 3.0625 C-3.71882812 3.07152344 -5.00015625 3.08054687 -6.3203125 3.08984375 C-7.30773437 3.10144531 -8.29515625 3.11304688 -9.3125 3.125 C-9.3125 3.785 -9.3125 4.445 -9.3125 5.125 C-15.19684239 6.18274392 -21.03580609 7.16036733 -27 7.625 C-33.09175273 8.12461138 -38.80784135 9.32161892 -44.625 11.1875 C-49.83622192 12.51238693 -54.94905296 12.7634193 -60.3125 13.125 C-59.9825 17.745 -59.6525 22.365 -59.3125 27.125 C-60.3025 27.125 -61.2925 27.125 -62.3125 27.125 C-62.36634521 24.83358714 -62.40522087 22.54181812 -62.4375 20.25 C-62.46070313 18.97382813 -62.48390625 17.69765625 -62.5078125 16.3828125 C-62.3125 13.125 -62.3125 13.125 -60.3125 11.125 C-58.03333778 10.73153849 -55.7371597 10.43439598 -53.4375 10.1875 C-48.79348245 9.64159727 -44.33417994 8.98379172 -39.8125 7.75 C-32.74480454 5.84007407 -25.5412651 4.73312483 -18.3203125 3.57080078 C-16.87978516 3.33272705 -16.87978516 3.33272705 -15.41015625 3.08984375 C-14.54914307 2.9518335 -13.68812988 2.81382324 -12.80102539 2.67163086 C-0.56936232 -0.015183 -0.56936232 -0.015183 0 0 Z " fill="#9F9E9F" transform="translate(995.3125,275.875)"/>
<path d="M0 0 C0 0.99 0 1.98 0 3 C-1.39235043 3.50961846 -2.78909118 4.00724909 -4.1875 4.5 C-5.35345703 4.91765625 -5.35345703 4.91765625 -6.54296875 5.34375 C-9 6 -9 6 -14 6 C-14 10.95 -14 15.9 -14 21 C13.72 21 41.44 21 70 21 C70 21.33 70 21.66 70 22 C41.95 22 13.9 22 -15 22 C-15 16.39 -15 10.78 -15 5 C-9.6100933 2.69003998 -6.51871865 1.66224624 -1 1 C-0.67 0.67 -0.34 0.34 0 0 Z " fill="#A6A6A7" transform="translate(950,407)"/>
<path d="M0 0 C-3.22087349 1.07638446 -6.21417712 1.03183404 -9.58422852 0.93359375 C-19.70646562 0.5256546 -19.70646562 0.5256546 -29 4 C-31.05690232 5.97748524 -32.84293741 8.00294049 -34.58984375 10.2578125 C-36 12 -36 12 -38 13 C-41.93170207 18.71758083 -40.54602292 28.40378008 -39.546875 34.984375 C-39.09637032 37.00521026 -38.55955015 39.00660259 -38 41 C-40 40 -40 40 -41.1015625 38.02734375 C-42.3435652 33.84233465 -42.36831242 29.90608216 -42.375 25.5625 C-42.39949219 24.72912109 -42.42398437 23.89574219 -42.44921875 23.03710938 C-42.48244005 16.03295225 -40.34922342 12.46668459 -35.5 7.375 C-34.675 6.59125 -33.85 5.8075 -33 5 C-32.443125 4.29875 -31.88625 3.5975 -31.3125 2.875 C-22.92923708 -3.92224021 -9.68987373 -3.52359045 0 0 Z " fill="#666666" transform="translate(494,202)"/>
<path d="M0 0 C1.83498047 -0.01160156 1.83498047 -0.01160156 3.70703125 -0.0234375 C10.11388506 -0.00958484 15.75176126 0.32598982 21.875 2.25 C18.87591131 3.12645189 16.27457412 3.34605781 13.15625 3.27734375 C12.23328125 3.26372803 11.3103125 3.2501123 10.359375 3.23608398 C9.37453125 3.22005127 8.3896875 3.20401855 7.375 3.1875 C-5.94364847 3.0702435 -18.96315159 4.30722716 -32.125 6.25 C-22.50099998 -0.16600001 -11.19396715 -0.07122354 0 0 Z " fill="#656566" transform="translate(400.125,205.75)"/>
<path d="M0 0 C2.79872437 2.52788007 4.45773019 4.20411134 5 8 C5.66 8 6.32 8 7 8 C7.66 6.02 8.32 4.04 9 2 C9.33 2 9.66 2 10 2 C10.08076963 4.45898655 10.14037143 6.91533742 10.1875 9.375 C10.22520508 10.42300781 10.22520508 10.42300781 10.26367188 11.4921875 C10.29296875 13.5234375 10.29296875 13.5234375 10 17 C9.01 17.66 8.02 18.32 7 19 C5.99194445 21.17897492 5.99194445 21.17897492 5.3125 23.625 C5.06113281 24.44226563 4.80976563 25.25953125 4.55078125 26.1015625 C4.36902344 26.72804687 4.18726563 27.35453125 4 28 C3.01 28 2.02 28 1 28 C0.01 30.475 0.01 30.475 -1 33 C-1.66 32.67 -2.32 32.34 -3 32 C-1.24541274 28.90858435 0.50093145 26.49906855 3 24 C4.74451809 18.76644573 5.02931497 12.79578127 3.10546875 7.5703125 C2.12721616 5.68294177 1.06906545 3.83745624 0 2 C0 1.34 0 0.68 0 0 Z " fill="#C6C6C6" transform="translate(442,220)"/>
<path d="M0 0 C4.66666667 0.66666667 9.33333333 1.33333333 14 2 C14.02683987 4.97922593 14.04676037 7.95821295 14.0625 10.9375 C14.07087891 11.78763672 14.07925781 12.63777344 14.08789062 13.51367188 C14.09111328 14.32255859 14.09433594 15.13144531 14.09765625 15.96484375 C14.10289307 16.7137085 14.10812988 17.46257324 14.11352539 18.23413086 C14 20 14 20 13 21 C9.97022196 21.08871273 6.96332978 21.1151935 3.93359375 21.09765625 C3.02497086 21.0962413 2.11634796 21.09482635 1.18019104 21.09336853 C-1.73407221 21.08775193 -4.64825981 21.07519665 -7.5625 21.0625 C-9.53320202 21.05748714 -11.50390524 21.05292386 -13.47460938 21.04882812 C-18.31643559 21.03777711 -23.15820495 21.02050138 -28 21 C-28 20.67 -28 20.34 -28 20 C-14.8 20 -1.6 20 12 20 C11.67 14.72 11.34 9.44 11 4 C7.37 3.01 3.74 2.02 0 1 C0 0.67 0 0.34 0 0 Z " fill="#D3D4D4" transform="translate(1008,409)"/>
<path d="M0 0 C-3.52417554 2.03521137 -7.03002707 2.75925336 -11 3.5625 C-15.57974936 4.46920913 -15.57974936 4.46920913 -20.109375 5.5859375 C-22.52367154 6.11468839 -24.78159448 6.09497902 -27.25 6.0625 C-28.8175 6.041875 -30.385 6.02125 -32 6 C-32 10.62 -32 15.24 -32 20 C-29.69 20 -27.38 20 -25 20 C-25 20.33 -25 20.66 -25 21 C-27.64 21 -30.28 21 -33 21 C-33 15.72 -33 10.44 -33 5 C-26.88574345 2.40800971 -21.41022453 1.34878037 -14.8125 0.8125 C-13.93658203 0.73064453 -13.06066406 0.64878906 -12.15820312 0.56445312 C-8.09622528 0.19798204 -4.08265997 -0.10988526 0 0 Z " fill="#9F9FA0" transform="translate(569,214)"/>
<path d="M0 0 C0 3.35936298 -0.41788651 3.83869388 -2.3125 6.4375 C-8.70693965 16.415041 -8.50857466 28.29362916 -8.6875 39.75 C-8.72076457 41.23700744 -8.75526222 42.72398782 -8.79101562 44.2109375 C-8.87485359 47.80709246 -8.94214373 51.40332197 -9 55 C-9.33 55 -9.66 55 -10 55 C-10.07535649 50.55667228 -10.12915723 46.11370396 -10.16479492 41.66992188 C-10.17968431 40.16497299 -10.2000027 38.66006589 -10.22631836 37.15527344 C-10.39441904 27.2801822 -10.35920168 17.43290977 -7 8 C-6.01 7.34 -5.02 6.68 -4 6 C-2.9590934 4.35857037 -1.95495674 2.69287785 -1 1 C-0.67 0.67 -0.34 0.34 0 0 Z " fill="#555555" transform="translate(346,228)"/>
<path d="M0 0 C0.91007813 0.00902344 1.82015625 0.01804687 2.7578125 0.02734375 C3.80582031 0.04474609 3.80582031 0.04474609 4.875 0.0625 C5.535 1.3825 6.195 2.7025 6.875 4.0625 C6.215 3.7325 5.555 3.4025 4.875 3.0625 C2.50097499 2.99133618 0.12499323 2.97840915 -2.25 3 C-3.53132812 3.00902344 -4.81265625 3.01804687 -6.1328125 3.02734375 C-7.61394531 3.04474609 -7.61394531 3.04474609 -9.125 3.0625 C-9.125 3.7225 -9.125 4.3825 -9.125 5.0625 C-15.86653283 6.32091946 -22.25984138 7.32654456 -29.125 7.0625 C-26.30794071 5.18446047 -24.94809599 4.65618244 -21.74609375 4.02734375 C-20.90755859 3.85783203 -20.06902344 3.68832031 -19.20507812 3.51367188 C-18.33302734 3.34416016 -17.46097656 3.17464844 -16.5625 3 C-14.83154884 2.65737611 -13.10105446 2.31243401 -11.37109375 1.96484375 C-10.60466553 1.81523193 -9.8382373 1.66562012 -9.04858398 1.51147461 C-2.43886919 -0.03126755 -2.43886919 -0.03126755 0 0 Z " fill="#676667" transform="translate(995.125,275.9375)"/>
<path d="M0 0 C0 0.33 0 0.66 0 1 C-5.13951171 2.41779633 -8.50953976 3 -14 3 C-14 7.29 -14 11.58 -14 16 C-12.989375 15.95875 -11.97875 15.9175 -10.9375 15.875 C-6.81923948 16.00573843 -3.88169467 16.73250786 0 18 C0 18.33 0 18.66 0 19 C-6.20970773 19.33266291 -10.28264895 18.45029331 -16 16 C-16 11.71 -16 7.42 -16 3 C-10.34595103 0.91235115 -6.01420257 -0.38388527 0 0 Z " fill="#6B6B6B" transform="translate(655,217)"/>
<path d="M0 0 C6.43111423 -0.10372765 12.60753173 0.27972188 19 1 C19 6.94 19 12.88 19 19 C18.67 19 18.34 19 18 19 C17.67 14.05 17.34 9.1 17 4 C11.39 3.34 5.78 2.68 0 2 C0 1.34 0 0.68 0 0 Z " fill="#ABACAC" transform="translate(394,409)"/>
<path d="M0 0 C3.625 3.625 3.625 3.625 4 7 C3.72686657 9.34114367 3.40197001 11.67750658 3 14 C6.3 11.36 9.6 8.72 13 6 C13.66 6.33 14.32 6.66 15 7 C13.42806337 8.51193905 11.84201199 10.00921421 10.25 11.5 C9.36828125 12.3353125 8.4865625 13.170625 7.578125 14.03125 C5 16 5 16 1 16 C0.67 10.72 0.34 5.44 0 0 Z " fill="#9C9E9E" transform="translate(1003,281)"/>
<path d="M0 0 C0 0.99 0 1.98 0 3 C-1.39235043 3.50961846 -2.78909118 4.00724909 -4.1875 4.5 C-5.35345703 4.91765625 -5.35345703 4.91765625 -6.54296875 5.34375 C-9 6 -9 6 -14 6 C-14 10.95 -14 15.9 -14 21 C-14.33 21 -14.66 21 -15 21 C-15 15.72 -15 10.44 -15 5 C-9.6100933 2.69003998 -6.51871865 1.66224624 -1 1 C-0.67 0.67 -0.34 0.34 0 0 Z " fill="#858686" transform="translate(950,407)"/>
<path d="M0 0 C-2.99548288 0.85016724 -5.99696463 1.67694586 -9 2.5 C-9.83917969 2.73847656 -10.67835938 2.97695312 -11.54296875 3.22265625 C-16.87247482 4.66864627 -21.47914367 5.2555952 -27 5 C-26.67 4.34 -26.34 3.68 -26 3 C-24.13671875 2.4375 -24.13671875 2.4375 -21.6875 2 C-20.34365234 1.75830078 -20.34365234 1.75830078 -18.97265625 1.51171875 C-17.50119141 1.25841797 -17.50119141 1.25841797 -16 1 C-14.94683594 0.80019531 -13.89367187 0.60039062 -12.80859375 0.39453125 C-11.75800781 0.20246094 -10.70742188 0.01039063 -9.625 -0.1875 C-8.64789062 -0.36667969 -7.67078125 -0.54585937 -6.6640625 -0.73046875 C-4.05650595 -0.99428312 -2.48131295 -0.69945932 0 0 Z " fill="#9F9FA0" transform="translate(682,212)"/>
<path d="M0 0 C1.00095703 -0.00386719 2.00191406 -0.00773438 3.03320312 -0.01171875 C4.60038086 0.00568359 4.60038086 0.00568359 6.19921875 0.0234375 C7.23240234 0.01183594 8.26558594 0.00023437 9.33007812 -0.01171875 C15.01063783 0.01014357 19.08007416 0.27122295 23.88671875 3.3984375 C23.88671875 4.0584375 23.88671875 4.7184375 23.88671875 5.3984375 C23.32726562 5.181875 22.7678125 4.9653125 22.19140625 4.7421875 C12.29250279 1.30462617 2.13176125 1.7592307 -8.11328125 3.3984375 C-5.62206463 0.28531841 -3.91774991 0.01457316 0 0 Z " fill="#6E6E6E" transform="translate(870.11328125,200.6015625)"/>
<path d="M0 0 C5.61 0.33 11.22 0.66 17 1 C16.67 6.94 16.34 12.88 16 19 C15.67 19 15.34 19 15 19 C14.67 14.05 14.34 9.1 14 4 C9.41015625 3.31640625 9.41015625 3.31640625 4.8203125 2.6328125 C2 2 2 2 0 0 Z " fill="#A2A2A3" transform="translate(713,409)"/>
<path d="M0 0 C-3.94837524 2.34997132 -8.25370702 3.14133188 -12.6875 4.125 C-13.45255859 4.30675781 -14.21761719 4.48851562 -15.00585938 4.67578125 C-20.44582306 5.89484641 -25.42678563 6.16669634 -31 6 C-31 5.67 -31 5.34 -31 5 C-30.16082031 4.83564453 -30.16082031 4.83564453 -29.3046875 4.66796875 C-28.50289063 4.50941406 -27.70109375 4.35085938 -26.875 4.1875 C-25.51568359 3.91873047 -25.51568359 3.91873047 -24.12890625 3.64453125 C-21.90265132 3.18593941 -19.68167862 2.70137472 -17.46484375 2.19921875 C-15.65693359 1.79123047 -15.65693359 1.79123047 -13.8125 1.375 C-12.12060547 0.98441406 -12.12060547 0.98441406 -10.39453125 0.5859375 C-6.86443141 -0.02340079 -3.57507225 -0.09993849 0 0 Z " fill="#6B6B6B" transform="translate(487,279)"/>
<path d="M0 0 C1.46373047 0.02707031 1.46373047 0.02707031 2.95703125 0.0546875 C3.69308594 0.07789063 4.42914062 0.10109375 5.1875 0.125 C0.50239253 3.24840498 -4.23765007 2.76533226 -9.8125 3.125 C-9.8125 8.405 -9.8125 13.685 -9.8125 19.125 C-10.1425 19.125 -10.4725 19.125 -10.8125 19.125 C-10.8125 13.515 -10.8125 7.905 -10.8125 2.125 C-6.3670917 0.34683668 -4.53134603 -0.10918906 0 0 Z " fill="#BCBDBC" transform="translate(650.8125,408.875)"/>
<path d="M0 0 C-1.39390539 3.15719572 -3.03634972 5.2812653 -5.5 7.6875 C-6.1084375 8.28949219 -6.716875 8.89148438 -7.34375 9.51171875 C-9 11 -9 11 -11 12 C-11.66 12.99 -12.32 13.98 -13 15 C-12.49353463 10.60543896 -11.04647166 8.46599839 -8.0625 5.25 C-6.99708984 4.08210937 -6.99708984 4.08210937 -5.91015625 2.890625 C-3.8484226 0.84997247 -2.9110911 0 0 0 Z " fill="#484848" transform="translate(862,204)"/>
<path d="M0 0 C0.33 0.66 0.66 1.32 1 2 C0.67 2.66 0.34 3.32 0 4 C-5.14613867 5.57000841 -8.46883935 6 -14 6 C-14 10.95 -14 15.9 -14 21 C-14.33 21 -14.66 21 -15 21 C-15 15.72 -15 10.44 -15 5 C-9.3117328 3.10391093 -6.68620859 2.80392384 -1 3 C-0.67 2.01 -0.34 1.02 0 0 Z " fill="#6D6E6D" transform="translate(1049,407)"/>
<path d="M0 0 C0.33 0 0.66 0 1 0 C1 9.57 1 19.14 1 29 C-0.65 29.33 -2.3 29.66 -4 30 C-3.5155542 29.46536133 -3.0311084 28.93072266 -2.53198242 28.37988281 C-0.60925987 25.39299843 -0.57491723 23.45662285 -0.48828125 19.921875 C-0.45283203 18.76171875 -0.41738281 17.6015625 -0.38085938 16.40625 C-0.34702148 14.59640625 -0.34702148 14.59640625 -0.3125 12.75 C-0.27833984 11.52796875 -0.24417969 10.3059375 -0.20898438 9.046875 C-0.12652838 6.03134154 -0.05736799 3.01609806 0 0 Z " fill="#464646" transform="translate(337,380)"/>
<path d="M0 0 C0.33 0 0.66 0 1 0 C1.33 6.6 1.66 13.2 2 20 C-1 17 -1 17 -1.328125 14.2578125 C-1.28945313 12.70707031 -1.28945313 12.70707031 -1.25 11.125 C-1.23453125 10.09632813 -1.2190625 9.06765625 -1.203125 8.0078125 C-1.01683935 5.24935192 -0.61574411 2.69139764 0 0 Z " fill="#1E1E1E" transform="translate(375,239)"/>
<path d="M0 0 C0 0.66 0 1.32 0 2 C-0.99 2 -1.98 2 -3 2 C-3.25523437 2.59296875 -3.51046875 3.1859375 -3.7734375 3.796875 C-5.11816498 6.21224538 -6.49214367 7.51211706 -8.625 9.25 C-9.25664063 9.77078125 -9.88828125 10.2915625 -10.5390625 10.828125 C-11.02117188 11.21484375 -11.50328125 11.6015625 -12 12 C-11.34 10.02 -10.68 8.04 -10 6 C-9.34 6 -8.68 6 -8 6 C-8 5.34 -8 4.68 -8 4 C-7.34 4 -6.68 4 -6 4 C-6 3.34 -6 2.68 -6 2 C-2.25 0 -2.25 0 0 0 Z " fill="#4BA9E4" transform="translate(766,371)"/>
<path d="M0 0 C0.33 0 0.66 0 1 0 C1 6.6 1 13.2 1 20 C0.34 20 -0.32 20 -1 20 C-1.33 21.32 -1.66 22.64 -2 24 C-3.43088528 21.13822943 -2.59991697 19.06624227 -2 16 C-1.34 16 -0.68 16 0 16 C0 10.72 0 5.44 0 0 Z " fill="#868684" transform="translate(904,219)"/>
<path d="M0 0 C-1.93270582 1.93270582 -5.38641388 1.62663055 -8 2 C-8.33 2.33 -8.66 2.66 -9 3 C-11.01964199 3.07244053 -13.04167124 3.08377188 -15.0625 3.0625 C-16.16722656 3.05347656 -17.27195312 3.04445312 -18.41015625 3.03515625 C-19.69212891 3.01775391 -19.69212891 3.01775391 -21 3 C-21 2.67 -21 2.34 -21 2 C-18.25162151 1.46892686 -15.50187625 0.94984119 -12.75 0.4375 C-11.97269531 0.28603516 -11.19539062 0.13457031 -10.39453125 -0.02148438 C-9.64042969 -0.16005859 -8.88632812 -0.29863281 -8.109375 -0.44140625 C-7.07248535 -0.63778687 -7.07248535 -0.63778687 -6.01464844 -0.83813477 C-3.78712058 -1.01710362 -2.12493038 -0.65206197 0 0 Z " fill="#525252" transform="translate(590,211)"/>
<path d="M0 0 C6.15234375 -0.09765625 6.15234375 -0.09765625 8 0 C9 1 9 1 9.09765625 4.59765625 C9.0909822 6.08596867 9.07902183 7.57426432 9.0625 9.0625 C9.05798828 9.82111328 9.05347656 10.57972656 9.04882812 11.36132812 C9.0370068 13.24091871 9.01907078 15.12046899 9 17 C8.67 17 8.34 17 8 17 C7.67 12.38 7.34 7.76 7 3 C4.69 2.34 2.38 1.68 0 1 C0 0.67 0 0.34 0 0 Z " fill="#646363" transform="translate(1110,411)"/>
<path d="M0 0 C-7.07555499 3.0017506 -13.37048445 3.34855655 -21 3 C-21 2.67 -21 2.34 -21 2 C-20.04287109 1.90912109 -20.04287109 1.90912109 -19.06640625 1.81640625 C-17.82697266 1.69072266 -17.82697266 1.69072266 -16.5625 1.5625 C-15.32693359 1.44068359 -15.32693359 1.44068359 -14.06640625 1.31640625 C-12.01337975 1.21069185 -12.01337975 1.21069185 -11 0 C-6.97279717 -0.75984959 -3.92759816 -1.16180608 0 0 Z " fill="#6E6E6F" transform="translate(876,281)"/>
<path d="M0 0 C0 3.61759584 -0.98217502 4.95698951 -2.875 8 C-3.40867187 8.86625 -3.94234375 9.7325 -4.4921875 10.625 C-5.63888508 12.43119722 -6.81324441 14.21986661 -8 16 C-7.51171875 9.9453125 -7.51171875 9.9453125 -7 8 C-6.01 7.34 -5.02 6.68 -4 6 C-2.9590934 4.35857037 -1.95495674 2.69287785 -1 1 C-0.67 0.67 -0.34 0.34 0 0 Z " fill="#9D9D9E" transform="translate(346,228)"/>
<path d="M0 0 C0.89203125 0.00902344 1.7840625 0.01804687 2.703125 0.02734375 C3.37859375 0.03894531 4.0540625 0.05054688 4.75 0.0625 C4.75 0.3925 4.75 0.7225 4.75 1.0625 C3.53763672 1.26166016 3.53763672 1.26166016 2.30078125 1.46484375 C1.23214844 1.64144531 0.16351563 1.81804687 -0.9375 2 C-1.99324219 2.17402344 -3.04898437 2.34804688 -4.13671875 2.52734375 C-6.85249604 2.99417121 -9.55124235 3.50672616 -12.25 4.0625 C-8.6985919 -0.02161931 -5.22072042 -0.06869369 0 0 Z " fill="#9B9B9C" transform="translate(499.25,274.9375)"/>
<path d="M0 0 C0.99 0.33 1.98 0.66 3 1 C2.0479279 2.00596297 1.08812654 3.00461563 0.125 4 C-0.40867187 4.556875 -0.94234375 5.11375 -1.4921875 5.6875 C-3 7 -3 7 -5 7 C-3.75023244 3.34683329 -3.32901247 2.21934164 0 0 Z " fill="#343436" transform="translate(461,207)"/>
<path d="M0 0 C0.58265625 0.21527344 1.1653125 0.43054688 1.765625 0.65234375 C0.31298462 1.51615665 -1.1466913 2.36814829 -2.609375 3.21484375 C-3.82753906 3.92833984 -3.82753906 3.92833984 -5.0703125 4.65625 C-5.78445313 4.98496094 -6.49859375 5.31367188 -7.234375 5.65234375 C-7.894375 5.32234375 -8.554375 4.99234375 -9.234375 4.65234375 C-8.16330383 3.78285058 -7.07691556 2.9322017 -5.984375 2.08984375 C-5.38109375 1.61417969 -4.7778125 1.13851563 -4.15625 0.6484375 C-2.234375 -0.34765625 -2.234375 -0.34765625 0 0 Z " fill="#8D8D8E" transform="translate(1019.234375,305.34765625)"/>
<path d="M0 0 C0.66 0.33 1.32 0.66 2 1 C0.37660195 2.70884005 -1.29319053 4.37446717 -3 6 C-3.66 6 -4.32 6 -5 6 C-4.75 4.125 -4.75 4.125 -4 2 C-2.0625 0.6875 -2.0625 0.6875 0 0 Z " fill="#D1D1D1" transform="translate(1013,309)"/>
</svg>
